
<svg viewBox="0 0 181 67" xmlns="http://www.w3.org/2000/svg" data-v-c12844f4="">
<g fill-rule="nonzero" data-v-c12844f4="">
<path d="M55.679 1.29v22.094a1.167 1.167 0 0 0-.485-.971.962.962 0 0 0-.286-.164c-.078-.026-.147-.052-.225-.07a1.135 1.135 0 0 0-.676.06 1.09 1.09 0 0 0-.407.26v.01L33.014 44.247h-10.35L2.089 22.509a1.124 1.124 0 0 0-.26-.191.979.979 0 0 0-.217-.095.601.601 0 0 0-.173-.043c-.035-.01-.07-.01-.113-.01a.689.689 0 0 0-.33.01 2 2 0 0 0-.215.069 1.18 1.18 0 0 0-.667.632 1.07 1.07 0 0 0-.113.503V1.29C0 .208 1.3-.347 2.079.407l24.908 26.31c.476.459 1.23.459 1.706 0L53.6.408c.78-.754 2.079-.2 2.079.884" fill="#A792C5" data-v-c12844f4="">
</path>
<path d="M0 44.255v20.854c0 .685.546 1.23 1.23 1.23h53.219c.68 0 1.23-.55 1.23-1.23V44.255H33.014l-4.322 4.556a1.229 1.229 0 0 1-1.706 0l-4.313-4.556H0z" fill="#EF6724" data-v-c12844f4="">
</path>
<path d="M55.679 23.38v20.864H33.023L53.6 22.506c.12-.121.26-.208.407-.27a1.23 1.23 0 0 1 .676-.06c.078.018.147.044.225.07.104.038.2.093.286.164.034.027.069.053.104.087.234.208.38.52.38.884M22.665 44.244H.009V23.381c0-.182.034-.356.104-.503.128-.291.368-.52.666-.632.07-.026.147-.052.218-.069a1.01 1.01 0 0 1 .328-.009c.044 0 .078 0 .113.009.06.006.118.02.173.043a.979.979 0 0 1 .216.095c.096.052.183.113.26.191l20.578 21.738z" fill="#1D0F45" data-v-c12844f4="">
</path>
</g>
<g fill-rule="nonzero" data-v-c12844f4="">
<path d="M87.592 1.186v22.015a1.18 1.18 0 0 0-1.178-1.186H71.587a1.18 1.18 0 0 0-1.178 1.186V1.186A1.183 1.183 0 0 1 71.587 0h14.827c.65 0 1.178.53 1.178 1.187M114.743 28.372v14.731c0 .676-.554 1.221-1.23 1.221h-25.92V27.143h25.92c.676 0 1.23.553 1.23 1.229" fill="#A792C5" data-v-c12844f4="">
</path>
<path d="M114.743 50.387v14.73c0 .677-.554 1.223-1.23 1.223H71.64c-.684 0-1.23-.546-1.23-1.222V44.325h17.183v4.833h25.92c.676 0 1.23.554 1.23 1.229z" fill="#EF6724" data-v-c12844f4="">
</path>
<path d="M87.592 23.2v21.12H70.41V23.2c0-.658.53-1.187 1.178-1.187h14.827c.65 0 1.178.53 1.178 1.187h-.001z" fill="#1D0F45" data-v-c12844f4="">
</path>
</g>
<g fill-rule="nonzero" data-v-c12844f4="">
<path d="M153.4.587a1.39 1.39 0 0 0-.511-.415c-.06-.026-.138-.044-.208-.061a1.217 1.217 0 0 0-.563 0c-.18.037-.348.12-.485.243a.39.39 0 0 0-.112.103c-.035.044-.061.078-.096.12L125.019 34.9a2.431 2.431 0 0 0-.46 1.438v6.686c0 .684.547 1.23 1.223 1.23h53.244c.685 0 1.23-.546 1.23-1.23v-6.73c0-.511-.165-1.013-.46-1.437L153.4.587z" fill="#A792C5" fill-rule="nonzero" data-v-c12844f4="">
</path>
<path d="M153.4 22.672a1.383 1.383 0 0 0-.511-.416c-.06-.026-.138-.043-.208-.061a1.245 1.245 0 0 0-.563 0c-.18.037-.348.12-.485.243a.393.393 0 0 0-.112.104l-.096.12-26.406 34.323a2.428 2.428 0 0 0-.46 1.437v6.687c0 .683.547 1.229 1.223 1.229h53.244c.685 0 1.23-.546 1.23-1.23v-6.73c0-.511-.165-1.013-.46-1.437L153.4 22.67v.002z" fill="#EF6724" fill-rule="nonzero" data-v-c12844f4="">
</path>
<path d="M152.89 22.255c-.061-.026-.14-.043-.208-.061a1.245 1.245 0 0 0-.563 0c-.18.036-.348.12-.486.242a.465.465 0 0 0-.113.105l-.095.121-16.612 21.591h35.212l-16.626-21.582a1.382 1.382 0 0 0-.51-.416h.001z" fill="#1D0F45" fill-rule="nonzero" data-v-c12844f4="">
</path>
</g>
</svg> 